<svg width="14" height="12" viewBox="0 0 14 12" fill="none" xmlns="http://www.w3.org/2000/svg">
<g id="Group">
<path id="Vector" opacity="0.3" d="M3.27654 11.7106L0.312544 9.24064C0.219971 9.14801 0.167969 9.0224 0.167969 8.89144C0.167969 8.76048 0.219971 8.63488 0.312544 8.54225L3.27654 6.07225C3.58684 5.76288 4.11974 5.98302 4.11974 6.42206L4.11974 7.90406L13.5057 7.90406C13.6368 7.90406 13.7624 7.95611 13.8551 8.04875C13.9477 8.14139 13.9997 8.26704 13.9997 8.39806L13.9997 9.38606C13.9997 9.51708 13.9477 9.64273 13.8551 9.73537C13.7624 9.82801 13.6368 9.88006 13.5057 9.88006L4.11974 9.88006L4.11974 11.3621C4.11974 11.8002 3.58746 12.0215 3.27654 11.7106Z" fill="#0072CA"/>
<path id="Vector_2" d="M10.048 5.43389L10.048 3.95189L0.661969 3.95189C0.530952 3.95189 0.405301 3.89984 0.312658 3.8072C0.220015 3.71455 0.167969 3.5889 0.167969 3.45789L0.167969 2.46989C0.167969 2.33887 0.220015 2.21322 0.312658 2.12058C0.405301 2.02793 0.530952 1.97589 0.661969 1.97589L10.048 1.97589L10.048 0.493886C10.048 0.05577 10.5803 -0.165604 10.8912 0.145307L13.8552 2.61531C13.9477 2.70794 13.9997 2.83354 13.9997 2.9645C13.9997 3.09546 13.9477 3.22107 13.8552 3.3137L10.8912 5.7837C10.5809 6.09307 10.048 5.87293 10.048 5.43389Z" fill="#0072CA"/>
</g>
</svg>
