<svg width="448" height="498" viewBox="0 0 448 498" fill="none" xmlns="http://www.w3.org/2000/svg">
<path d="M102.999 490C112.399 499.4 127.599 499.4 136.899 490C146.199 480.6 146.299 465.4 136.899 456.1L81.8992 401.1L423.999 401C437.299 401 447.999 390.3 447.999 377C447.999 363.7 437.299 353 423.999 353H81.8992L136.899 298C146.299 288.6 146.299 273.4 136.899 264.1C127.499 254.8 112.299 254.7 102.999 264.1L6.99922 360C-2.40078 369.4 -2.40078 384.6 6.99922 393.9L102.999 489.9V490ZM440.999 138C450.399 128.6 450.399 113.4 440.999 104.1L344.999 8.0002C335.599 -1.3998 320.399 -1.3998 311.099 8.0002C301.799 17.4002 301.699 32.6002 311.099 41.9002L366.099 96.9002L23.9992 97.0002C10.6992 97.0002 -0.000781536 107.7 -0.000781536 121C-0.000781536 134.3 10.6992 145 23.9992 145H366.099L311.099 200C301.699 209.4 301.699 224.6 311.099 233.9C320.499 243.2 335.699 243.3 344.999 233.9L440.999 137.9V138Z" fill="black"/>
</svg>
